<svg width="85" height="42" viewBox="0 0 85 42" fill="none" xmlns="http://www.w3.org/2000/svg">
<path d="M5.76 22.56C5.76 24.88 6.74667 26.04 8.72 26.04C10.88 26.04 12.3333 25.2933 13.08 23.8C13.3467 23.2667 13.48 22.5867 13.48 21.76C13.48 20.9067 13.28 20.12 12.88 19.4C12.2133 18.2533 11.0667 16.9867 9.44 15.6C6.74667 13.3067 5.4 10.9333 5.4 8.48C5.4 6 6.17333 4.09333 7.72 2.76C9.26667 1.42667 11.04 0.759998 13.04 0.759998C15.04 0.759998 16.6267 1.26666 17.8 2.28C18.9733 3.29333 19.56 4.81333 19.56 6.84C19.56 8.17333 19.1067 9.33333 18.2 10.32C17.32 11.3067 16.1467 11.92 14.68 12.16C15.3467 12.72 16.0133 13.2933 16.68 13.88C17.32 14.4667 17.9067 15.1067 18.44 15.8C19.6133 17.3733 20.2 19.2533 20.2 21.44C20.2 22.96 19.84 24.3333 19.12 25.56C18.4267 26.7867 17.5067 27.8267 16.36 28.68C15.24 29.5067 13.9733 30.1467 12.56 30.6C11.1467 31.0533 9.82667 31.28 8.6 31.28C5.98667 31.28 3.96 30.68 2.52 29.48C0.84 28.12 1.49012e-08 26.16 1.49012e-08 23.6C1.49012e-08 21.92 0.546667 20.2933 1.64 18.72C2.73333 17.1467 3.89333 16.36 5.12 16.36C6.08 16.36 6.56 16.6533 6.56 17.24C6.56 18.0933 6.42667 18.9467 6.16 19.8C5.89333 20.6267 5.76 21.5467 5.76 22.56ZM13.52 11.2C15.04 9.68 15.8 8.09333 15.8 6.44C15.8 5.93333 15.5333 5.50667 15 5.16C14.4133 4.84 13.8 4.68 13.16 4.68C11.72 4.68 10.68 5.14666 10.04 6.08C10.36 7.22667 10.8267 8.2 11.44 9C12.08 9.8 12.7733 10.5333 13.52 11.2ZM30.5725 14.24C31.9592 12.6667 33.7325 11.88 35.8925 11.88C38.9858 11.88 40.9458 13.1333 41.7725 15.64C42.0125 16.3867 42.1325 17.2133 42.1325 18.12C42.1325 20.1467 41.4658 22.1467 40.1325 24.12C38.8258 26.0933 37.2392 27.4267 35.3725 28.12H35.8525C37.7992 28.12 39.7725 27.4 41.7725 25.96C43.0525 25.0533 44.0525 24.12 44.7725 23.16C45.5192 22.1733 46.0792 21.68 46.4525 21.68C46.8258 21.68 47.0125 22.1067 47.0125 22.96C47.0125 24.4533 46.3725 25.96 45.0925 27.48C43.1725 29.6667 40.7192 30.9467 37.7325 31.32C35.5725 31.56 34.0392 31.6 33.1325 31.44C32.2258 31.28 31.5325 31.08 31.0525 30.84C30.0125 30.3067 29.4925 29.5067 29.4925 28.44C29.4925 27.8533 29.6125 27.32 29.8525 26.84C31.9592 26.84 33.5592 26.04 34.6525 24.44C35.7458 22.84 36.2925 20.84 36.2925 18.44C36.2925 17.8533 36.0792 17.3333 35.6525 16.88C35.2258 16.4 34.6525 16.16 33.9325 16.16C33.2392 16.16 32.4792 16.4667 31.6525 17.08C30.8258 17.6933 30.1592 18.4667 29.6525 19.4C29.1725 20.3067 28.7325 21.2133 28.3325 22.12C27.9325 23 27.6125 24.12 27.3725 25.48C26.9458 27.9333 26.4525 31.0267 25.8925 34.76C25.3592 38.52 25.0258 40.5333 24.8925 40.8C24.7592 41.0933 24.5592 41.36 24.2925 41.6C24.0258 41.84 23.7458 41.96 23.4525 41.96C22.9192 41.96 22.4792 41.8 22.1325 41.48C21.1725 40.6533 20.6125 40.0133 20.4525 39.56C20.2925 39.1333 20.2125 38.5733 20.2125 37.88C20.2125 35.2667 20.6525 31.6 21.5325 26.88C22.4125 22.16 23.9325 17.2533 26.0925 12.16C26.4125 11.4133 26.9725 11.04 27.7725 11.04C28.5992 11.04 29.3858 11.76 30.1325 13.2C30.3458 13.5733 30.4925 13.92 30.5725 14.24ZM69.5647 21.56C70.0447 21.56 70.2847 22.1733 70.2847 23.4C70.2847 24.0667 70.0047 24.88 69.4447 25.84C68.8847 26.7733 68.1514 27.64 67.2447 28.44C66.3647 29.2133 65.378 29.8533 64.2847 30.36C63.1914 30.8667 62.1247 31.12 61.0847 31.12C59.618 31.12 58.658 29.92 58.2047 27.52C56.6047 30.0533 54.2314 31.32 51.0847 31.32C49.1647 31.32 47.6314 30.7333 46.4847 29.56C45.338 28.3867 44.778 26.96 44.8047 25.28C44.8047 20.7467 46.3114 17.1733 49.3247 14.56C51.4047 12.7733 53.5647 11.88 55.8047 11.88C56.818 11.88 57.618 11.96 58.2047 12.12L59.1247 12.36C60.218 7.21333 61.4847 3.77333 62.9247 2.04C63.4047 1.45333 63.8847 1.16 64.3647 1.16C65.138 1.16 65.858 1.69333 66.5247 2.76C67.1114 3.64 67.4047 4.4 67.4047 5.04C67.4047 5.68 67.3114 6.30667 67.1247 6.92C66.938 7.53333 66.698 8.10666 66.4047 8.64C66.138 9.14667 65.8314 9.65333 65.4847 10.16C65.138 10.64 64.7914 11.1333 64.4447 11.64C63.6714 14.52 63.098 17.7467 62.7247 21.32C62.618 22.3333 62.5647 23.1467 62.5647 23.76C62.5647 25.6 62.8714 26.52 63.4847 26.52C64.178 26.52 65.858 25.1333 68.5247 22.36C69.0047 21.8267 69.3514 21.56 69.5647 21.56ZM50.6847 23.96C50.6847 26.0133 51.4447 27.04 52.9647 27.04C53.8714 27.04 54.778 26.6933 55.6847 26C56.618 25.3067 57.338 24.1467 57.8447 22.52C57.898 20.12 58.178 17.48 58.6847 14.6C56.5514 15.0267 54.6847 16.0667 53.0847 17.72C51.4847 19.3733 50.6847 21.4533 50.6847 23.96ZM84.1659 21.56C84.6459 21.56 84.8859 21.9733 84.8859 22.8C84.8859 23.6 84.6726 24.4667 84.2459 25.4C83.8459 26.3333 83.2193 27.24 82.3659 28.12C81.5393 28.9733 80.4726 29.7067 79.1659 30.32C77.8593 30.9333 76.3126 31.24 74.5259 31.24C72.7659 31.24 71.2193 30.72 69.8859 29.68C68.5526 28.6133 67.8859 27.0933 67.8859 25.12C67.8859 23.12 68.1926 21.32 68.8059 19.72C69.4459 18.0933 70.2726 16.6933 71.2859 15.52C72.3259 14.3467 73.4993 13.44 74.8059 12.8C76.1126 12.1333 77.3526 11.8 78.5259 11.8C80.5793 11.8 81.6059 12.6133 81.6059 14.24C81.6059 15.1733 81.4059 15.92 81.0059 16.48C80.6326 17.04 80.2459 17.32 79.8459 17.32C79.3126 17.32 78.8459 17.1333 78.4459 16.76C78.0459 16.3867 77.6059 16.2 77.1259 16.2C76.6459 16.1733 76.1793 16.4 75.7259 16.88C75.2993 17.36 74.9393 17.9733 74.6459 18.72C74.0593 20.2133 73.7659 21.96 73.7659 23.96C73.7926 24.92 74.2326 25.64 75.0859 26.12C75.6726 26.44 76.3659 26.6133 77.1659 26.64C77.9659 26.64 78.7259 26.3733 79.4459 25.84C80.1926 25.3067 80.8726 24.7333 81.4859 24.12C82.0993 23.48 82.6326 22.8933 83.0859 22.36C83.5659 21.8267 83.9259 21.56 84.1659 21.56Z" fill="black"/>
</svg>
